<svg id="Layer_1" data-name="Layer 1" xmlns="http://www.w3.org/2000/svg" viewBox="0 0 399.87 74.47"><defs><style>.cls-1{fill:#fff;}.cls-2{fill:#ef4136;}</style></defs><title>Untitled-1</title><polygon class="cls-1" points="17.41 3.31 1.97 30.4 1.56 34.62 19.67 66.2 58.15 64.66 71.73 34.76 70.29 30.4 54.24 3.31 47.55 0.77 21.52 0.77 17.41 3.31"/><path class="cls-2" d="M224.78,254.87a5.24,5.24,0,0,1,2.41-.77h28a5.93,5.93,0,0,1,4.28,2.47l14,24.23a5.93,5.93,0,0,1,0,4.95l-14,24.23a5.94,5.94,0,0,1-4.28,2.47h-28A5.93,5.93,0,0,1,222.9,310l-14-24.23a5.93,5.93,0,0,1,0-4.95l14-24.23a5.24,5.24,0,0,1,1.87-1.7M223.12,252a8.45,8.45,0,0,0-3.08,2.92l-14,24.23a9.16,9.16,0,0,0,0,8.26l19.47,33.72a9.16,9.16,0,0,0,7.15,4.13h28a9.16,9.16,0,0,0,7.15-4.13l14-24.23a9.16,9.16,0,0,0,0-8.26l-19.47-33.72a9.16,9.16,0,0,0-7.15-4.13h-28a8.45,8.45,0,0,0-4.07,1.21h0Z" transform="translate(-205.06 -250.79)"/><path class="cls-2" d="M234.3,304.22l5.91-17.48h-8.82l5.87-21.64,15.16,0-8,13.78h9.49Z" transform="translate(-205.06 -250.79)"/><path class="cls-2" d="M311.38,312.46v-46.9h8.44v15a14.72,14.72,0,0,1,11-4.43c9.78,0,17.65,8.37,17.65,18.85s-7.67,18.71-17.51,18.71c-4.78,0-8.37-1.62-11.81-5.41v4.22h-7.74Zm7.88-17.86c0,6.47,4.57,11.32,10.62,11.32S340,301.28,340,294.81c0-6.26-4.36-11-10.27-11A10.57,10.57,0,0,0,319.26,294.6Z" transform="translate(-205.06 -250.79)"/><path class="cls-2" d="M352.26,294.88A18.83,18.83,0,0,1,371.1,276.1a18.78,18.78,0,0,1-.14,37.55A18.85,18.85,0,0,1,352.26,294.88Zm8.44,0c0,6.26,4.5,11,10.34,11s10.2-4.85,10.2-10.9-4.64-11.18-10.2-11.18S360.7,288.83,360.7,294.88Z" transform="translate(-205.06 -250.79)"/><path class="cls-2" d="M394.24,312.46v-46.9h8.44v46.9h-8.44Z" transform="translate(-205.06 -250.79)"/><path class="cls-2" d="M411.47,312.46V285h-4.15V277.3h4.15V265.55h8.44V277.3h4.15V285h-4.15v27.43h-8.44Z" transform="translate(-205.06 -250.79)"/><path class="cls-2" d="M428.7,312.46V277.3h7.74v3c2.18-2.88,5.13-4.22,9.35-4.22a11.69,11.69,0,0,1,10.06,5.56c2.6-3.73,6.33-5.56,11.32-5.56,9.14,0,14.28,5.77,14.28,15.89v20.46H473V293c0-6-2.25-9.14-6.61-9.14-5,0-7.17,3.38-7.17,11.11v17.51h-8.44V293c0-5.84-2.46-9.14-7-9.14-4.78,0-6.68,3.23-6.68,11.11v17.51H428.7Z" transform="translate(-205.06 -250.79)"/><path class="cls-2" d="M522.93,277.3v35.16H515.2v-4.29c-2.6,3.09-7.95,5.49-12.31,5.49-9.85,0-17.09-8.09-17.09-19,0-10.55,7.59-18.56,17.58-18.56a15.84,15.84,0,0,1,11.81,5.63V277.3h7.74ZM515,294.74c0-6.26-4.36-10.9-10.34-10.9s-10.41,4.85-10.41,11.25a10.53,10.53,0,0,0,10.41,10.83C510.63,305.92,515,301.21,515,294.74Z" transform="translate(-205.06 -250.79)"/><path class="cls-2" d="M563.73,265.55v46.9H556v-4.29a16.28,16.28,0,0,1-12,5.49c-9.42,0-17.3-8.58-17.3-18.71,0-10.34,8-18.85,17.65-18.85a16.63,16.63,0,0,1,11,4.36V265.55h8.44ZM535.1,294.67c0,6.26,4.64,11.25,10.41,11.25s10.34-5,10.34-11-4.64-11-10.41-11C540,283.84,535.1,288.9,535.1,294.67Z" transform="translate(-205.06 -250.79)"/><path class="cls-2" d="M604.44,298.61H577.16a9.9,9.9,0,0,0,9.35,7.31,8.65,8.65,0,0,0,7.88-4.57h9.28a18,18,0,0,1-16.88,12.31,18.53,18.53,0,0,1-18.56-18.71c0-10.55,8.3-19.06,18.49-19.06a18.46,18.46,0,0,1,18.21,18.49A18,18,0,0,1,604.44,298.61Zm-7.74-6.75c-1.2-5.06-5-8.23-9.85-8.23a10.13,10.13,0,0,0-10,8.23h19.83Z" transform="translate(-205.06 -250.79)"/></svg>